<?xml version="1.0" encoding="utf-8"?>
<!-- Generator: Adobe Illustrator 18.1.1, SVG Export Plug-In . SVG Version: 6.00 Build 0)  -->
<svg version="1.1" id="Layer_1" xmlns="http://www.w3.org/2000/svg" xmlns:xlink="http://www.w3.org/1999/xlink" x="0px" y="0px"
	 viewBox="0 0 640 480" enable-background="new 0 0 640 480" xml:space="preserve">
<path fill="#7F7F7F" id="car-body" stroke="#000000" stroke-width="4" stroke-miterlimit="10" d="M574.3,362.6l-48.3,4.7l-477.8,0.1
	c-6.6,0-12-5.4-12-12v-231c0-6.6,5.4-12,12-12H526l48.3,5.2c6.6,0,19.9,65.6,19.9,122.2S580.9,362.6,574.3,362.6z"/>
<path fill="none" stroke="#000000" stroke-width="4" stroke-miterlimit="10" d="M449.9,355H62c-6.6,0-12-5.4-12-12V138
	c0-6.6,5.4-12,12-12h387.9c6.6,0,12.3,44.5,12.3,114.5S456.5,355,449.9,355z"/>
<path fill="#FFFFFF" stroke="#000000" stroke-width="4" stroke-miterlimit="10" d="M521.3,355l-57.3-5.4c0,0,7.2-36.8,6.7-109.6
	S464,131.6,464,131.6l57.3-5.6c0,0,6.7,40.1,6.7,114S521.3,355,521.3,355z"/>
</svg>
